<svg width="84" height="62" viewBox="0 0 84 62" fill="none" xmlns="http://www.w3.org/2000/svg">
<mask id="mask0" mask-type="alpha" maskUnits="userSpaceOnUse" x="0" y="0" width="84" height="62">
<path d="M64.8804 57.9926L19.8787 61.4446V28.9963C19.8848 27.5646 19.8848 26.7595 19.8787 26.58C19.4711 11.4674 13.151 0 0.494263 0H83.5743C70.9167 0 65.2889 11.4674 64.8804 26.58C64.8752 26.7595 64.8752 27.5646 64.8804 28.9963V57.9926Z" fill="white"/>
</mask>
<g mask="url(#mask0)">
<path d="M64.8804 57.9926L19.8787 61.4446V28.9963C19.8848 27.5646 19.8848 26.7595 19.8787 26.58C19.4711 11.4674 13.151 0 0.494263 0H83.5743C70.9167 0 65.2889 11.4674 64.8804 26.58C64.8752 26.7595 64.8752 27.5646 64.8804 28.9963V57.9926Z" fill="#2E272D"/>
<path fill-rule="evenodd" clip-rule="evenodd" d="M49.65 33.1165C49.3306 31.6583 49.2069 30.6821 48.0343 30.6934C47.116 30.6821 46.0092 32.3905 45.6111 34.7323V43.6166H40.7647V33.1165C40.7206 31.6583 40.5969 30.6821 39.9573 30.6934C38.506 30.6821 37.3991 32.3905 37.5341 34.7323V43.6166H31.8804V34.7323C32.1097 29.7059 30.2646 27.9967 30.2646 28.2702L34.3035 26.6545C34.4472 26.6545 35.4303 27.7527 35.9184 29.8859C37.0296 27.6315 38.9976 26.6545 41.573 26.6545C43.303 26.6545 44.5328 27.5095 44.8036 29.0776C46.255 27.2646 47.9771 26.6545 49.65 26.6545C53.3886 26.6545 54.4963 28.9729 54.4963 32.3091V43.6166H49.65V33.1165Z" fill="#FEFEFE"/>
</g>
</svg>
